<svg width="40" height="40" viewBox="0 0 40 40" fill="none" xmlns="http://www.w3.org/2000/svg">
<path d="M23.6667 4.79163C21.6223 4.79163 19.6617 5.60375 18.2161 7.04934C16.7705 8.49494 15.9583 10.4556 15.9583 12.5V16.7916H11.8333C11.6262 16.7916 11.4583 16.9595 11.4583 17.1666V22.8333C11.4583 23.0404 11.6262 23.2083 11.8333 23.2083H15.9583V34.8333C15.9583 35.0404 16.1262 35.2083 16.3333 35.2083H22C22.2071 35.2083 22.375 35.0404 22.375 34.8333V23.2083H26.5365C26.7086 23.2083 26.8586 23.0912 26.9004 22.9242L28.317 17.2576C28.3762 17.0209 28.1972 16.7916 27.9532 16.7916H22.375V12.5C22.375 12.1574 22.5111 11.8288 22.7533 11.5866C22.9956 11.3444 23.3241 11.2083 23.6667 11.2083H28C28.2071 11.2083 28.375 11.0404 28.375 10.8333V5.16663C28.375 4.95952 28.2071 4.79163 28 4.79163H23.6667Z" fill="black" fill-opacity="0.5"/>
</svg>
