<svg width="40" height="40" viewBox="0 0 40 40" fill="none" xmlns="http://www.w3.org/2000/svg">
<path d="M36.3496 10.3787C36.4461 10.2441 36.3035 10.0703 36.149 10.1301C35.0511 10.5557 33.9037 10.8428 32.7333 10.9843C34.0365 10.2058 35.0421 9.02062 35.5998 7.61752C35.6566 7.47458 35.5005 7.34694 35.3658 7.42129C34.1546 8.09019 32.8484 8.57185 31.4915 8.84925C31.4347 8.86086 31.3761 8.84152 31.3362 8.79945C30.318 7.72499 28.9776 7.00959 27.5163 6.76238C26.0244 6.50997 24.4909 6.75989 23.1563 7.47294C21.8217 8.18599 20.7615 9.32184 20.1421 10.7024C19.553 12.015 19.3941 13.4781 19.6846 14.8834C19.7072 14.9924 19.6218 15.0953 19.5107 15.0884C16.8706 14.9244 14.2911 14.2222 11.9311 13.0241C9.57706 11.8289 7.49251 10.1663 5.80439 8.13879C5.72947 8.0488 5.58747 8.06045 5.53288 8.16404C5.0076 9.16081 4.73257 10.2718 4.73332 11.401C4.73119 12.5249 5.00701 13.632 5.53624 14.6236C6.06547 15.6151 6.83168 16.4605 7.76665 17.0843C6.77511 17.0573 5.8029 16.8122 4.91873 16.3677C4.80479 16.3105 4.66811 16.392 4.67404 16.5194C4.74298 18.0015 5.28707 19.4894 6.22884 20.6309C7.23104 21.8457 8.62208 22.677 10.1667 22.9843C9.57208 23.1652 8.95478 23.2606 8.33332 23.2676C7.99508 23.2637 7.65751 23.2387 7.32254 23.1929C7.19835 23.1759 7.09693 23.2939 7.14041 23.4115C7.60111 24.6573 8.41498 25.7444 9.48511 26.5379C10.6292 27.3863 12.0093 27.8569 13.4333 27.8843C11.0287 29.7764 8.05979 30.8091 4.99999 30.8176C4.68558 30.8187 4.37131 30.8085 4.05779 30.7871C3.88111 30.7751 3.79985 31.0105 3.95214 31.1008C6.93342 32.8701 10.341 33.8052 13.8167 33.801C16.3828 33.8276 18.9285 33.3427 21.3052 32.3744C23.6818 31.4062 25.8417 29.9741 27.6587 28.1618C29.4756 26.3495 30.9133 24.1933 31.8876 21.8191C32.8619 19.445 33.3534 16.9005 33.3333 14.3343V13.5346C33.3333 13.482 33.3582 13.4325 33.4002 13.4008C34.5307 12.5472 35.5248 11.5281 36.3496 10.3787Z" fill="black" fill-opacity="0.5"/>
</svg>
